<svg xmlns="http://www.w3.org/2000/svg" version="1.1" xmlns:xlink="http://www.w3.org/1999/xlink" xmlns:svgjs="http://svgjs.com/svgjs" width="1440" height="150" preserveAspectRatio="none" viewBox="0 0 1440 150">
    <g mask="url(&quot;#SvgjsMask1072&quot;)" fill="none">
        <rect width="1440" height="150" x="0" y="0" fill="rgba(10, 15, 41, 1)"></rect>
        <path d="M1560 150L0 150 L0 93.41Q58.74 32.16, 120 90.9Q145.08 43.98, 192 69.06Q255.19 12.25, 312 75.44Q357.77 49.22, 384 94.99Q405.56 44.56, 456 66.12Q500.36 38.48, 528 82.84Q593.07 27.92, 648 92.99Q696.78 21.77, 768 70.55Q833.04 15.59, 888 80.63Q953.41 26.04, 1008 91.46Q1057.44 20.91, 1128 70.35Q1193.14 15.49, 1248 80.63Q1290.3 50.93, 1320 93.23Q1366.54 19.77, 1440 66.3Q1507.08 13.38, 1560 80.46z" fill="rgba(20, 44, 94, 1)"></path>
        <path d="M1512 150L0 150 L0 107.65Q52.41 40.06, 120 92.47Q154.68 55.15, 192 89.83Q234.71 60.54, 264 103.25Q329.93 49.17, 384 115.1Q406.15 65.25, 456 87.39Q498.01 57.41, 528 99.42Q593.13 44.56, 648 109.69Q696.88 38.57, 768 87.44Q809.76 57.2, 840 98.97Q881.07 68.03, 912 109.1Q937.73 62.83, 984 88.56Q1023.38 55.95, 1056 95.33Q1122.52 41.85, 1176 108.36Q1209.12 69.48, 1248 102.6Q1302.81 37.41, 1368 92.22Q1415.77 67.99, 1440 115.76Q1470.44 74.2, 1512 104.64z" fill="rgba(79, 110, 162, 1)"></path>
        <path d="M1512 150L0 150 L0 112.9Q59.7 52.61, 120 112.31Q185.31 57.62, 240 122.93Q306.57 69.5, 360 136.08Q408.2 64.28, 480 112.48Q546.75 59.23, 600 125.97Q641.25 95.22, 672 136.48Q718.12 62.6, 792 108.71Q860.53 57.24, 912 125.77Q953.63 95.4, 984 137.03Q1007.53 88.56, 1056 112.1Q1097.62 81.72, 1128 123.33Q1193.87 69.2, 1248 135.07Q1272.49 87.56, 1320 112.06Q1385.31 57.37, 1440 122.68Q1481.45 92.13, 1512 133.58z" fill="rgba(121, 149, 185, 1)"></path>
        <path d="M1536 150L0 150 L0 140.75Q43.96 112.71, 72 156.67Q94.73 107.4, 144 130.13Q210.75 76.88, 264 143.63Q306.52 114.15, 336 156.67Q358.53 107.2, 408 129.73Q451.1 100.83, 480 143.94Q522.67 114.61, 552 157.28Q599.81 85.09, 672 132.9Q713.42 102.32, 744 143.75Q787.18 114.93, 816 158.11Q863.5 85.61, 936 133.1Q1001.91 79.01, 1056 144.93Q1122.71 91.65, 1176 158.36Q1224.21 86.57, 1296 134.78Q1361.61 80.39, 1416 146Q1481.2 91.2, 1536 156.4z" fill="rgba(235, 233, 233, 1)"></path>
    </g>
    <defs>
        <mask id="SvgjsMask1072">
            <rect width="1440" height="150" fill="#ffffff"></rect>
        </mask>
    </defs>
</svg>