<svg id="visual" viewBox="0 0 900 600" width="900" height="600" xmlns="http://www.w3.org/2000/svg" xmlns:xlink="http://www.w3.org/1999/xlink" version="1.1"><rect width="900" height="600" fill="#001220"></rect><g><g transform="translate(449 217)"><path d="M93.4 -32.8C105.7 7.5 89.7 54.5 58.8 75.8C27.8 97 -18.1 92.6 -47.5 70.1C-76.9 47.6 -89.7 7.1 -79.1 -30.9C-68.4 -69 -34.2 -104.7 3.2 -105.8C40.5 -106.8 81.1 -73.2 93.4 -32.8Z" stroke="#C62368" fill="none" stroke-width="8"></path></g><g transform="translate(822 582)"><path d="M79.7 -26.3C90.3 6.4 76.7 46.6 49.3 66.1C21.8 85.7 -19.4 84.5 -49.9 63.6C-80.5 42.6 -100.3 1.8 -90.2 -30.4C-80.1 -62.6 -40.1 -86.2 -2.7 -85.3C34.6 -84.4 69.2 -59.1 79.7 -26.3Z" stroke="#C62368" fill="none" stroke-width="8"></path></g><g transform="translate(125 538)"><path d="M56.4 -16.9C65.2 8.7 58.9 40.6 40 54.1C21.1 67.6 -10.5 62.7 -32.9 46.2C-55.3 29.7 -68.7 1.5 -61.7 -21.6C-54.7 -44.7 -27.3 -62.7 -1.8 -62.1C23.8 -61.6 47.7 -42.4 56.4 -16.9Z" stroke="#C62368" fill="none" stroke-width="8"></path></g><g transform="translate(21 64)"><path d="M71.9 -24.2C80.8 4.1 67.1 38.8 41.6 57.4C16.1 76 -21.3 78.4 -44.1 61.6C-66.8 44.9 -75 8.9 -65.2 -20.5C-55.4 -49.9 -27.7 -72.9 1.9 -73.5C31.5 -74.1 62.9 -52.4 71.9 -24.2Z" stroke="#C62368" fill="none" stroke-width="8"></path></g></g></svg>