<?xml version="1.0" standalone="no"?>
<!DOCTYPE svg PUBLIC "-//W3C//DTD SVG 20010904//EN"
 "http://www.w3.org/TR/2001/REC-SVG-20010904/DTD/svg10.dtd">
<svg version="1.0" xmlns="http://www.w3.org/2000/svg"
 width="300.000000pt" height="300.000000pt" viewBox="0 0 300.000000 300.000000"
 preserveAspectRatio="xMidYMid meet">
<metadata>
Created by potrace 1.14, written by Peter Selinger 2001-2017
</metadata>
<g transform="translate(0.000000,300.000000) scale(0.100000,-0.100000)"
fill="#000000" stroke="none">
<path d="M0 1500 l0 -1500 1500 0 1500 0 0 1500 0 1500 -1500 0 -1500 0 0
-1500z m1773 1073 c-7 -2 -19 -2 -25 0 -7 3 -2 5 12 5 14 0 19 -2 13 -5z m-88
-19 c39 -4 75 -8 82 -9 6 0 15 -4 19 -8 4 -4 18 -7 30 -7 12 0 35 -5 51 -12
15 -6 33 -12 40 -14 7 -1 46 -18 87 -38 41 -20 79 -36 85 -36 6 0 11 -4 11
-10 0 -5 6 -10 13 -10 6 0 31 -15 53 -33 23 -17 52 -39 64 -47 64 -43 190
-185 230 -258 13 -23 29 -41 36 -38 7 3 10 -2 7 -14 -3 -10 0 -21 6 -24 6 -4
11 -15 11 -25 0 -10 9 -30 20 -44 11 -14 20 -35 20 -47 0 -11 3 -19 8 -17 4 3
8 -9 9 -26 1 -17 8 -34 15 -39 7 -4 10 -8 7 -8 -4 0 -2 -19 3 -42 18 -86 23
-145 23 -253 -1 -146 -8 -193 -57 -344 -17 -53 -33 -98 -37 -101 -3 -3 -19
-31 -34 -62 -16 -32 -33 -58 -38 -58 -5 0 -9 -5 -9 -11 0 -7 -16 -31 -35 -55
-19 -23 -35 -45 -35 -49 0 -11 -118 -125 -129 -125 -6 0 -11 -4 -11 -9 0 -5
-16 -18 -35 -30 -19 -11 -33 -26 -31 -33 1 -7 1 -10 -1 -6 -5 9 -73 -23 -73
-34 0 -4 -5 -8 -11 -8 -12 0 -102 -40 -109 -49 -8 -10 -102 -41 -139 -47 -18
-2 -41 -9 -50 -14 -10 -5 -39 -10 -64 -11 -26 -2 -47 -5 -47 -9 0 -10 -300 -8
-306 1 -3 5 -21 9 -41 9 -34 0 -82 12 -128 31 -13 6 -6 6 20 2 22 -3 48 -10
58 -15 32 -17 278 -22 364 -8 417 67 729 326 862 717 105 311 43 680 -159 952
-207 279 -541 433 -905 419 -69 -3 -124 -3 -122 -2 18 18 250 23 372 8z m-391
-14 c-5 -5 -25 -12 -44 -15 -35 -5 -35 -5 5 9 51 18 51 18 39 6z m-84 -21 c0
-6 -6 -9 -12 -6 -7 2 -20 -1 -28 -8 -8 -7 -28 -15 -45 -19 -25 -5 -22 -2 15
18 51 27 70 31 70 15z m-124 -47 c-8 -13 -46 -22 -46 -11 0 5 9 9 20 9 11 0
20 5 20 12 0 6 3 9 6 5 3 -3 3 -10 0 -15z m-76 4 c0 -2 -6 -9 -14 -15 -11 -9
-16 -9 -22 0 -4 7 -3 9 4 5 6 -3 13 -2 17 4 6 10 15 14 15 6z m15 -36 c-3 -4
-14 -10 -25 -13 -16 -4 -19 -2 -11 7 11 13 43 18 36 6z m-68 -33 c-10 -7 -46
-31 -79 -55 -42 -31 -56 -37 -48 -23 6 12 17 21 25 21 8 0 15 4 15 8 0 5 10
14 23 21 12 6 33 18 47 26 30 18 43 19 17 2z m611 -37 c12 -12 22 -26 22 -33
0 -7 -8 -3 -16 8 -11 14 -18 16 -21 7 -3 -6 -9 -10 -14 -6 -5 3 -9 4 -10 2 0
-2 -3 -25 -6 -52 -5 -47 -5 -48 18 -41 21 7 20 5 -6 -18 l-30 -26 50 5 c44 5
52 3 63 -16 11 -18 10 -26 -4 -53 -11 -21 -19 -65 -22 -124 -4 -81 -2 -98 18
-135 12 -24 29 -49 38 -55 8 -7 13 -15 10 -19 -8 -8 -48 37 -48 53 0 8 -4 12
-9 9 -5 -3 -11 13 -15 35 l-6 40 -33 -22 c-41 -29 -83 -71 -79 -82 1 -5 -1 -6
-6 -3 -5 3 -14 -4 -22 -14 -8 -10 -17 -17 -20 -15 -4 2 -13 -7 -20 -20 -7 -14
-17 -25 -22 -25 -4 0 -8 -5 -8 -11 0 -5 -13 -24 -30 -42 -26 -28 -28 -33 -13
-41 27 -15 57 -49 71 -79 6 -15 17 -25 22 -22 6 3 10 1 10 -4 0 -6 -4 -11 -9
-11 -5 0 -1 -18 10 -40 36 -75 16 -175 -41 -205 -17 -9 -28 -20 -25 -25 4 -6
1 -10 -4 -10 -6 0 -11 -7 -11 -15 0 -8 -4 -15 -8 -15 -10 0 -52 -94 -52 -115
0 -7 -5 -17 -11 -21 -6 -3 -9 -19 -7 -35 3 -15 1 -26 -3 -23 -13 8 -27 -59
-26 -119 1 -47 4 -56 17 -52 11 4 11 2 -2 -8 -10 -8 -30 -12 -47 -9 -30 4 -41
28 -41 91 0 87 92 302 158 370 24 24 42 55 46 75 12 64 -22 164 -78 231 -17
20 -25 25 -26 14 0 -8 5 -20 10 -25 15 -15 24 -170 13 -219 l-9 -39 -84 -17
c-101 -21 -110 -22 -90 -9 8 5 25 10 38 10 12 0 22 3 22 8 0 4 21 8 47 10 26
2 49 4 51 6 22 23 20 218 -3 255 -6 11 -45 2 -45 -10 0 -5 -7 -9 -15 -9 -8 0
-15 -4 -15 -10 0 -5 -5 -10 -12 -10 -18 0 -138 -122 -156 -160 -11 -23 -16
-54 -14 -91 2 -43 -1 -58 -12 -62 -19 -7 -39 -78 -26 -91 10 -10 60 20 120 73
26 22 31 30 18 31 -10 0 -18 5 -18 10 0 11 7 12 33 1 39 -15 -127 -141 -186
-141 -54 0 -61 69 -12 120 21 21 23 31 16 55 -16 58 13 120 93 199 40 39 103
89 140 110 37 22 80 56 94 75 61 83 139 165 197 207 l63 46 -25 61 c-65 159
-69 316 -10 345 33 16 51 14 75 -8z m32 -74 c0 -13 -7 -27 -16 -30 -14 -5 -15
-4 -4 9 7 8 10 22 6 30 -3 8 -1 15 4 15 6 0 10 -11 10 -24z m-851 -53 c-134
-140 -220 -293 -274 -487 -36 -129 -36 -383 0 -512 54 -194 146 -355 279 -492
33 -34 57 -62 54 -62 -13 0 -158 152 -158 165 0 7 -3 15 -8 17 -16 7 -142 230
-142 252 0 4 -6 22 -14 39 -46 108 -66 358 -40 512 4 28 7 56 6 63 -2 6 2 12
8 12 5 0 10 10 10 22 0 24 17 83 33 113 44 82 54 111 45 123 -8 9 -7 11 6 6
11 -4 16 -1 16 10 0 9 4 16 9 16 5 0 14 13 21 29 6 16 19 37 28 47 9 11 29 35
44 56 32 42 125 138 135 138 3 0 -23 -30 -58 -67z m1226 -37 c63 -32 128 -107
105 -121 -5 -3 -10 0 -10 9 0 33 -96 117 -114 99 -3 -4 -6 -1 -6 5 0 16 -81
16 -115 0 -31 -14 -33 -27 -2 -26 64 3 107 -4 121 -18 9 -8 16 -13 16 -9 0 7
6 1 78 -68 48 -47 49 -47 46 -20 l-4 28 11 -25 c6 -14 9 -54 7 -90 -4 -74 -36
-133 -88 -163 -28 -17 -30 -22 -30 -75 1 -34 7 -65 15 -76 8 -11 15 -31 14
-45 -1 -22 -2 -21 -11 9 -5 19 -15 41 -21 48 -6 8 -10 33 -10 57 l1 43 -36 -6
c-70 -12 -233 1 -240 19 -2 5 -10 9 -18 9 -8 0 -14 5 -14 10 0 7 7 7 21 -1 12
-6 36 -15 53 -20 l30 -9 -38 32 c-21 17 -52 52 -67 77 -69 108 -12 280 111
336 43 19 151 15 195 -9z m-345 -392 c20 -20 22 -27 11 -33 -10 -7 -8 -10 8
-16 13 -4 25 -4 28 -1 4 3 19 -8 34 -25 17 -19 32 -28 40 -23 8 5 10 3 4 -6
-4 -7 -3 -15 3 -19 10 -6 15 -25 13 -51 -1 -8 -17 -32 -36 -52 -32 -36 -38
-38 -92 -38 -52 0 -62 4 -95 34 -21 19 -38 42 -38 53 0 13 5 10 19 -13 22 -37
58 -64 83 -64 29 0 88 59 88 88 0 31 -65 102 -93 102 -10 0 -33 -17 -52 -37
-27 -30 -42 -38 -71 -38 -32 -1 -34 0 -17 12 40 28 44 33 32 54 -6 13 -18 19
-32 17 -18 -2 -22 -9 -21 -35 2 -39 -3 -42 -15 -10 -11 27 12 57 45 57 17 0
21 5 17 19 -13 52 94 72 137 25z m-162 -29 c-3 -3 -9 2 -12 12 -6 14 -5 15 5
6 7 -7 10 -15 7 -18z m1143 -38 c-10 -9 -11 -8 -5 6 3 10 9 15 12 12 3 -3 0
-11 -7 -18z m-617 -146 c3 -5 -7 -14 -24 -19 -16 -6 -32 -8 -34 -3 -3 4 5 8
17 8 12 1 23 7 25 13 4 12 9 13 16 1z m-84 -24 c8 -7 21 -24 27 -39 21 -47
117 -148 140 -148 7 0 12 -4 10 -9 -1 -5 21 -24 49 -44 38 -26 54 -33 67 -25
13 7 17 6 15 -4 -2 -7 4 -13 12 -13 9 0 16 11 18 28 2 20 -1 27 -13 27 -9 0
-13 5 -10 10 5 9 -9 15 -18 8 -4 -4 -57 50 -57 58 0 4 9 -1 19 -10 11 -10 35
-25 53 -34 27 -14 34 -23 36 -54 3 -32 -1 -40 -22 -49 -36 -17 -86 -4 -155 41
-77 50 -193 165 -220 218 l-21 41 23 4 c12 2 24 5 27 5 3 1 12 -4 20 -11z
m-97 -44 c-9 -15 -20 -30 -23 -33 -3 -3 -18 -20 -33 -38 -15 -19 -27 -29 -27
-25 0 5 13 24 28 41 16 18 37 48 48 67 10 20 20 31 22 26 2 -5 -5 -22 -15 -38z
m236 13 c33 -17 91 -81 90 -99 0 -9 -2 -9 -6 1 -2 6 -10 9 -15 6 -7 -4 -8 -2
-4 5 11 17 -61 80 -100 87 -18 3 -42 3 -53 -1 -12 -4 -21 -2 -21 4 0 16 76 13
109 -3z m-1637 -78 c2 -20 0 -34 -4 -32 -4 3 -8 24 -7 47 1 47 6 41 11 -15z
m2358 -28 c0 -5 -5 -10 -11 -10 -5 0 -7 5 -4 10 3 6 8 10 11 10 2 0 4 -4 4
-10z m-1055 -29 c-3 -6 -11 -8 -17 -5 -6 4 -5 9 3 15 16 10 23 4 14 -10z m-36
-27 c-17 -20 -99 -77 -99 -68 0 8 53 50 61 47 4 -1 15 7 24 17 21 24 33 27 14
4z m1011 -18 c0 -3 -4 -8 -10 -11 -5 -3 -10 -1 -10 4 0 6 5 11 10 11 6 0 10
-2 10 -4z m-1130 -82 c-36 -93 -143 -274 -163 -274 -8 0 4 21 23 40 3 3 15 19
27 36 17 24 19 34 10 43 -9 10 -9 12 2 9 14 -3 66 81 73 117 1 11 9 26 16 33
7 8 9 18 6 24 -4 7 -2 8 4 4 8 -5 8 -15 2 -32z m1210 -84 c0 -5 -5 -10 -11
-10 -5 0 -7 5 -4 10 3 6 8 10 11 10 2 0 4 -4 4 -10z m-80 -74 c0 -3 -4 -8 -10
-11 -5 -3 -10 -1 -10 4 0 6 5 11 10 11 6 0 10 -2 10 -4z m-1300 -134 c0 -11
-45 -66 -99 -122 -35 -36 -39 -39 -21 -12 12 17 26 32 31 32 5 0 9 9 9 21 0
11 5 17 10 14 9 -6 14 8 11 28 -1 5 3 6 8 2 6 -3 18 6 27 20 17 26 24 31 24
17z m1380 -32 c0 -5 -5 -10 -11 -10 -5 0 -7 5 -4 10 3 6 8 10 11 10 2 0 4 -4
4 -10z m-1620 -30 c0 -10 5 -22 10 -25 6 -3 10 -14 10 -23 0 -15 -2 -15 -10
-2 -9 13 -11 13 -19 0 -5 -8 -7 -18 -4 -24 3 -5 1 -6 -6 -2 -18 12 -64 -100
-51 -125 10 -17 13 -18 38 -5 15 8 48 35 75 60 26 25 47 42 47 38 0 -13 -73
-78 -118 -106 -53 -33 -91 -31 -111 5 -13 24 -13 31 2 70 21 52 114 172 127
164 6 -4 10 -15 10 -25z m1540 -44 c0 -3 -4 -8 -10 -11 -5 -3 -10 -1 -10 4 0
6 5 11 10 11 6 0 10 -2 10 -4z m-160 -166 c0 -5 -5 -10 -11 -10 -5 0 -7 5 -4
10 3 6 8 10 11 10 2 0 4 -4 4 -10z m240 0 c0 -5 -5 -10 -11 -10 -5 0 -7 5 -4
10 3 6 8 10 11 10 2 0 4 -4 4 -10z m-1744 -160 c54 -28 106 -50 115 -50 10 0
20 -4 23 -8 12 -19 -53 1 -126 38 -27 14 -38 16 -42 7 -2 -7 -5 -6 -5 4 -1 9
-21 26 -45 39 -24 12 -64 40 -88 62 l-43 40 57 -42 c31 -22 100 -63 154 -90z
m1424 86 c0 -3 -4 -8 -10 -11 -5 -3 -10 -1 -10 4 0 6 5 11 10 11 6 0 10 -2 10
-4z m240 0 c0 -3 -4 -8 -10 -11 -5 -3 -10 -1 -10 4 0 6 5 11 10 11 6 0 10 -2
10 -4z m-400 -166 c0 -5 -5 -10 -11 -10 -5 0 -7 5 -4 10 3 6 8 10 11 10 2 0 4
-4 4 -10z m240 0 c0 -5 -5 -10 -11 -10 -5 0 -7 5 -4 10 3 6 8 10 11 10 2 0 4
-4 4 -10z m240 0 c0 -5 -5 -10 -11 -10 -5 0 -7 5 -4 10 3 6 8 10 11 10 2 0 4
-4 4 -10z m-1040 -74 c0 -3 -4 -8 -10 -11 -5 -3 -10 -1 -10 4 0 6 5 11 10 11
6 0 10 -2 10 -4z m240 0 c0 -3 -4 -8 -10 -11 -5 -3 -10 -1 -10 4 0 6 5 11 10
11 6 0 10 -2 10 -4z m240 0 c0 -3 -4 -8 -10 -11 -5 -3 -10 -1 -10 4 0 6 5 11
10 11 6 0 10 -2 10 -4z m240 0 c0 -3 -4 -8 -10 -11 -5 -3 -10 -1 -10 4 0 6 5
11 10 11 6 0 10 -2 10 -4z m240 0 c0 -3 -4 -8 -10 -11 -5 -3 -10 -1 -10 4 0 6
5 11 10 11 6 0 10 -2 10 -4z m-880 -166 c0 -5 -5 -10 -11 -10 -5 0 -7 5 -4 10
3 6 8 10 11 10 2 0 4 -4 4 -10z m240 0 c0 -5 -5 -10 -11 -10 -5 0 -7 5 -4 10
3 6 8 10 11 10 2 0 4 -4 4 -10z m240 0 c0 -5 -5 -10 -11 -10 -5 0 -7 5 -4 10
3 6 8 10 11 10 2 0 4 -4 4 -10z m240 0 c0 -5 -5 -10 -11 -10 -5 0 -7 5 -4 10
3 6 8 10 11 10 2 0 4 -4 4 -10z m240 0 c0 -5 -5 -10 -11 -10 -5 0 -7 5 -4 10
3 6 8 10 11 10 2 0 4 -4 4 -10z"/>
<path d="M1535 2160 c4 -14 8 -32 10 -40 2 -8 9 -35 16 -60 l13 -45 8 60 c4
33 12 61 18 63 5 2 10 15 10 28 0 22 -3 24 -40 22 -38 -3 -40 -5 -35 -28z"/>
<path d="M1731 2112 c-89 -95 -87 -199 6 -287 65 -61 120 -67 209 -24 60 28
96 77 101 137 4 40 1 53 -26 89 -50 69 -133 125 -192 131 -50 5 -51 4 -98 -46z
m239 -143 c15 -35 1 -59 -34 -59 -47 0 -63 57 -25 84 27 19 44 12 59 -25z"/>
<path d="M1514 1816 c-3 -8 -4 -23 -2 -33 5 -25 51 -25 56 0 7 36 -42 65 -54
33z"/>
</g>
</svg>
