<svg id="svg" version="1.1" xmlns="http://www.w3.org/2000/svg" xmlns:xlink="http://www.w3.org/1999/xlink" width="1440" height="150.66666666666667" viewBox="0, 0, 400,41.66666666666667"><g id="svgg"><path id="path0" d="M71.254 0.542 C 70.069 2.559,65.003 6.764,62.256 8.010 C 56.191 10.759,48.738 9.726,41.338 5.110 C 39.832 4.171,40.095 4.167,38.872 5.149 C 28.223 13.695,17.431 12.914,8.270 2.934 C 6.516 1.023,6.835 1.059,4.858 2.549 C 3.183 3.810,0.508 5.500,0.185 5.500 C -0.140 5.500,-0.049 7.615,0.292 7.975 C 7.541 15.627,12.233 17.916,19.167 17.180 C 20.129 17.077,21.179 16.968,21.500 16.935 C 23.764 16.709,28.431 14.350,31.946 11.654 C 33.415 10.528,33.406 10.530,34.464 11.062 C 39.697 13.692,44.928 13.343,48.844 10.104 L 49.917 9.217 51.417 9.471 C 53.076 9.752,56.272 9.817,57.619 9.597 L 58.489 9.455 60.249 10.643 C 65.241 14.011,68.647 14.660,75.376 13.524 C 77.904 13.097,81.864 11.088,85.292 8.492 C 86.672 7.448,86.349 7.332,88.715 9.726 C 93.904 14.975,99.029 15.489,105.380 11.395 C 106.735 10.522,106.539 10.533,108.313 11.240 C 112.642 12.966,116.302 13.070,119.614 11.561 C 120.279 11.258,120.574 11.203,120.891 11.323 C 122.624 11.983,129.536 11.374,130.575 10.471 C 130.662 10.395,130.850 10.333,130.992 10.333 C 131.134 10.332,131.619 10.145,132.070 9.916 C 133.012 9.438,133.446 9.403,134.255 9.741 C 136.748 10.783,140.321 10.317,143.825 8.494 L 145.166 7.796 145.875 8.126 C 146.264 8.308,146.771 8.510,147.000 8.575 C 148.061 8.877,148.845 9.404,150.000 10.593 C 155.257 16.003,160.810 18.189,166.917 17.253 C 167.925 17.098,168.938 16.949,169.167 16.921 C 171.181 16.677,175.136 14.835,178.348 12.643 C 180.006 11.513,180.062 11.503,181.143 12.168 C 192.327 19.050,203.136 17.307,210.816 7.384 C 212.870 4.730,213.363 4.677,216.000 6.827 C 219.784 9.911,221.297 10.388,226.805 10.236 C 230.317 10.139,231.605 9.982,233.500 9.420 C 234.004 9.271,234.584 9.107,234.788 9.055 C 235.086 8.981,235.467 9.252,236.705 10.417 C 239.749 13.284,242.930 15.280,246.000 16.250 C 248.807 17.137,254.226 16.934,257.359 15.825 C 259.907 14.923,262.334 13.600,265.166 11.566 L 266.681 10.478 268.382 11.501 C 279.170 17.986,287.153 17.258,295.900 8.992 C 297.240 7.726,297.770 7.337,298.500 7.088 C 299.004 6.916,299.642 6.648,299.917 6.492 C 300.192 6.336,300.642 6.081,300.917 5.923 L 301.417 5.638 303.197 7.383 C 311.586 15.605,320.548 16.278,330.705 9.451 C 331.780 8.728,332.718 8.162,332.788 8.193 C 333.324 8.431,335.505 10.008,336.289 10.725 C 345.558 19.205,354.535 19.573,364.851 11.895 C 366.703 10.517,366.782 10.492,367.346 11.107 C 368.144 11.976,370.782 14.081,372.404 15.145 C 381.198 20.911,390.312 19.593,398.958 11.304 L 400.000 10.306 400.000 6.496 L 400.000 2.686 398.125 3.642 C 391.923 6.806,386.971 6.127,382.621 1.515 C 382.004 0.862,381.500 0.253,381.500 0.164 C 381.500 0.071,380.964 0.000,380.272 0.000 L 379.044 0.000 378.397 1.125 C 375.128 6.810,368.758 8.897,362.250 6.415 C 359.845 5.498,360.081 5.484,358.538 6.628 C 347.431 14.863,335.736 13.408,327.500 2.766 C 326.781 1.837,326.644 1.832,325.242 2.684 C 319.312 6.286,313.914 5.841,309.386 1.375 L 307.992 -0.000 306.871 0.003 L 305.750 0.007 304.856 1.431 C 301.196 7.263,295.217 8.982,288.125 6.243 C 286.665 5.679,286.604 5.670,286.184 5.946 C 279.069 10.620,272.448 9.529,267.538 2.875 C 266.617 1.627,266.799 1.644,265.117 2.655 C 259.105 6.272,252.952 5.531,248.811 0.693 L 248.218 0.000 246.734 0.001 L 245.250 0.003 244.333 1.183 C 236.700 11.010,225.818 12.673,214.904 5.680 C 213.297 4.650,213.425 4.651,211.953 5.647 C 205.293 10.153,199.538 9.114,193.785 2.367 L 193.320 1.821 192.285 2.423 C 185.965 6.097,180.845 5.746,176.306 1.326 L 174.943 0.000 173.347 0.006 L 171.750 0.012 170.917 1.101 C 163.405 10.914,152.423 12.544,141.271 5.501 C 139.980 4.685,140.050 4.686,139.029 5.492 C 128.163 14.082,116.799 13.151,108.000 2.949 C 106.667 1.403,106.667 1.403,105.886 2.029 C 95.880 10.054,85.652 9.897,76.911 1.586 L 75.250 0.006 73.411 0.003 L 71.572 0.000 71.254 0.542 " stroke="none" fill="#7b94bb" fill-rule="evenodd"></path><path id="path1" d="M0.000 2.750 C 0.000 4.656,0.057 5.500,0.185 5.500 C 0.508 5.500,3.183 3.810,4.858 2.549 C 6.835 1.059,6.516 1.023,8.270 2.934 C 17.431 12.914,28.223 13.695,38.872 5.149 C 40.095 4.167,39.832 4.171,41.338 5.110 C 51.322 11.338,60.642 10.965,68.014 4.042 C 69.422 2.720,71.500 0.395,71.500 0.141 C 71.500 0.064,55.413 0.000,35.750 0.000 L 0.000 0.000 0.000 2.750 M75.500 0.153 C 75.500 0.673,80.338 4.603,82.260 5.644 C 89.601 9.620,98.029 8.330,105.886 2.029 C 106.667 1.403,106.667 1.403,108.000 2.949 C 116.799 13.151,128.163 14.082,139.029 5.492 C 140.050 4.686,139.980 4.685,141.271 5.501 C 151.184 11.762,160.630 11.297,168.045 4.183 C 169.538 2.751,171.667 0.349,171.667 0.096 C 171.667 0.043,150.029 0.000,123.583 0.000 C 94.410 0.000,75.500 0.060,75.500 0.153 M175.325 0.318 C 175.620 0.869,177.704 2.661,178.849 3.348 C 182.815 5.728,187.109 5.432,192.285 2.423 L 193.320 1.821 193.785 2.367 C 199.538 9.114,205.293 10.153,211.953 5.647 C 213.425 4.651,213.297 4.650,214.904 5.680 C 223.121 10.944,231.503 11.379,238.273 6.891 C 240.327 5.529,244.200 1.719,245.067 0.208 C 245.162 0.042,238.136 -0.000,210.171 -0.000 C 175.773 -0.000,175.158 0.006,175.325 0.318 M248.481 0.292 C 248.569 0.452,248.966 0.892,249.362 1.269 C 254.036 5.711,259.271 6.172,265.117 2.655 C 266.799 1.644,266.617 1.627,267.538 2.875 C 272.448 9.529,279.069 10.620,286.184 5.946 C 286.604 5.670,286.665 5.679,288.125 6.243 C 295.156 8.958,301.026 7.319,304.755 1.598 C 305.256 0.828,305.667 0.154,305.667 0.099 C 305.667 0.045,292.764 0.000,276.994 0.000 C 249.737 0.000,248.329 0.014,248.481 0.292 M308.646 0.641 C 312.590 5.620,319.091 6.421,325.242 2.684 C 326.644 1.832,326.781 1.837,327.500 2.766 C 335.736 13.408,347.431 14.863,358.538 6.628 C 360.081 5.484,359.845 5.498,362.250 6.415 C 368.993 8.986,375.648 6.615,378.733 0.542 L 379.009 0.000 343.574 0.000 L 308.139 0.000 308.646 0.641 M381.500 0.164 C 381.500 0.253,382.004 0.862,382.621 1.515 C 386.959 6.114,391.918 6.804,398.083 3.665 L 399.917 2.732 399.965 1.366 L 400.013 0.000 390.757 0.000 C 384.815 0.000,381.500 0.059,381.500 0.164 " stroke="none" fill="#e7e8e9" fill-rule="evenodd"></path><path id="path2" d="M212.365 5.708 C 211.991 6.006,211.217 6.850,210.645 7.583 C 203.050 17.323,192.249 19.001,181.143 12.168 C 180.062 11.503,180.006 11.513,178.348 12.643 C 175.136 14.835,171.181 16.677,169.167 16.921 C 168.938 16.949,167.925 17.098,166.917 17.253 C 165.074 17.535,164.194 17.522,161.280 17.171 C 157.740 16.744,153.672 14.371,150.000 10.593 C 148.845 9.404,148.061 8.877,147.000 8.575 C 146.771 8.510,146.264 8.308,145.875 8.126 L 145.166 7.796 143.825 8.494 C 140.321 10.317,136.748 10.783,134.255 9.741 C 133.446 9.403,133.012 9.438,132.070 9.916 C 131.619 10.145,131.134 10.332,130.992 10.333 C 130.850 10.333,130.662 10.395,130.575 10.471 C 129.536 11.374,122.624 11.983,120.891 11.323 C 120.574 11.203,120.279 11.258,119.614 11.561 C 116.302 13.070,112.642 12.966,108.313 11.240 C 106.539 10.533,106.735 10.522,105.380 11.395 C 99.029 15.489,93.904 14.975,88.715 9.726 C 86.349 7.332,86.672 7.448,85.292 8.492 C 81.864 11.088,77.904 13.097,75.376 13.524 C 68.647 14.660,65.241 14.011,60.249 10.643 L 58.489 9.455 57.619 9.597 C 56.272 9.817,53.076 9.752,51.417 9.471 L 49.917 9.217 48.844 10.104 C 44.928 13.343,39.697 13.692,34.464 11.062 C 33.406 10.530,33.415 10.528,31.946 11.654 C 28.431 14.350,23.764 16.709,21.500 16.935 C 21.179 16.968,20.129 17.077,19.167 17.180 C 12.720 17.864,7.200 15.392,1.583 9.305 C -0.006 7.583,0.000 7.585,-0.000 8.756 C -0.000 9.597,0.092 9.827,1.042 11.361 C 4.667 17.219,9.272 19.281,15.500 17.837 C 16.279 17.656,17.442 17.506,18.083 17.503 C 18.725 17.500,19.698 17.425,20.245 17.335 L 21.240 17.172 23.328 18.571 C 33.315 25.259,42.305 24.328,50.971 15.708 C 52.284 14.402,53.392 13.333,53.433 13.333 C 53.474 13.333,54.029 13.730,54.665 14.215 C 59.747 18.087,64.871 18.396,69.565 15.114 C 70.497 14.463,70.750 14.369,71.848 14.266 C 72.528 14.202,73.560 14.070,74.143 13.971 L 75.202 13.793 76.560 15.118 C 85.272 23.622,95.481 23.987,105.455 16.149 C 106.736 15.143,106.440 15.071,108.141 16.795 C 113.310 22.033,118.928 22.502,125.149 18.213 L 126.714 17.134 128.149 17.813 C 135.804 21.434,141.634 19.600,146.226 12.125 C 146.628 11.471,146.797 11.547,147.917 12.877 C 151.236 16.819,155.676 18.561,159.906 17.580 C 160.764 17.381,161.225 17.363,162.042 17.495 C 163.524 17.736,165.838 17.705,167.582 17.422 C 168.762 17.231,169.138 17.222,169.355 17.381 C 169.507 17.492,170.099 17.951,170.670 18.401 C 174.965 21.781,181.097 21.582,185.918 17.904 C 186.623 17.367,186.563 17.352,188.435 18.529 C 198.763 25.020,208.206 24.242,215.891 16.267 C 216.912 15.208,217.578 14.420,219.454 12.050 L 220.008 11.350 222.212 13.562 C 230.384 21.762,238.437 23.164,247.721 18.001 L 249.521 17.000 251.257 17.000 C 252.212 17.000,253.507 16.912,254.135 16.804 L 255.277 16.609 256.537 17.679 C 261.537 21.929,265.764 21.952,272.894 17.767 L 273.433 17.450 274.807 17.980 C 281.461 20.546,286.984 19.234,290.749 14.193 C 291.735 12.872,293.384 11.329,294.104 11.053 C 294.260 10.993,294.984 11.593,296.131 12.735 C 305.155 21.711,315.510 22.050,325.786 13.706 C 326.648 13.006,326.550 12.965,327.862 14.583 C 332.807 20.686,339.558 21.681,345.896 17.242 C 346.462 16.845,346.869 16.958,347.919 17.804 C 353.886 22.614,359.349 22.537,365.062 17.560 C 365.784 16.931,366.469 16.348,366.584 16.264 C 366.727 16.159,367.152 16.370,367.938 16.937 C 379.515 25.289,389.800 23.957,399.137 12.894 C 400.419 11.375,400.438 9.757,399.158 11.105 C 393.486 17.074,385.492 19.875,379.000 18.168 C 375.343 17.206,369.944 13.935,367.346 11.107 C 366.782 10.492,366.703 10.517,364.851 11.895 C 354.535 19.573,345.558 19.205,336.289 10.725 C 335.505 10.008,333.324 8.431,332.788 8.193 C 332.718 8.162,331.780 8.728,330.705 9.451 C 320.548 16.278,311.586 15.605,303.197 7.383 L 301.417 5.638 300.917 5.923 C 300.642 6.081,300.192 6.336,299.917 6.492 C 299.642 6.648,299.004 6.916,298.500 7.088 C 297.770 7.337,297.240 7.726,295.900 8.992 C 287.153 17.258,279.170 17.986,268.382 11.501 L 266.681 10.478 265.166 11.566 C 261.506 14.194,257.883 15.959,255.359 16.343 C 252.228 16.820,251.607 16.868,249.593 16.786 C 245.197 16.607,241.158 14.611,236.705 10.417 C 235.467 9.252,235.086 8.981,234.788 9.055 C 234.584 9.107,234.004 9.271,233.500 9.420 C 231.605 9.982,230.317 10.139,226.805 10.236 C 221.297 10.388,219.784 9.911,216.000 6.827 C 213.891 5.108,213.334 4.937,212.365 5.708 " stroke="none" fill="#4d6da4" fill-rule="evenodd"></path><path id="path3" d="M293.221 15.704 C 293.133 15.821,292.780 16.471,292.436 17.149 C 290.412 21.150,287.358 23.876,283.917 24.755 C 281.352 25.410,276.206 24.757,273.777 23.469 C 273.539 23.342,273.024 23.529,271.444 24.317 C 264.246 27.904,258.363 26.301,253.921 19.542 C 253.333 18.646,253.501 18.605,251.447 20.152 C 240.783 28.180,231.180 27.439,221.876 17.871 C 220.845 16.811,219.970 15.975,219.932 16.013 C 219.893 16.052,219.499 16.581,219.056 17.188 C 210.792 28.520,200.031 30.591,188.259 23.114 C 186.500 21.996,186.719 22.033,185.905 22.717 C 175.050 31.843,164.320 31.070,154.366 20.444 C 153.305 19.312,153.340 19.315,152.177 20.226 C 142.454 27.839,132.809 28.085,124.602 20.928 C 123.337 19.825,123.068 19.702,122.539 19.992 C 122.228 20.163,121.387 20.515,120.583 20.812 C 119.916 21.059,117.973 21.326,116.814 21.330 C 115.892 21.333,115.859 21.350,114.564 22.507 C 107.055 29.216,98.798 29.537,88.787 23.508 C 86.467 22.111,86.711 22.137,85.440 23.145 C 74.566 31.767,63.593 30.877,54.562 20.641 C 53.413 19.338,53.299 19.313,52.068 20.100 C 48.917 22.116,45.505 22.981,42.535 22.518 C 41.553 22.365,41.152 22.373,40.451 22.563 C 37.194 23.444,33.441 23.326,30.205 22.240 C 28.656 21.720,28.843 21.680,27.654 22.792 C 20.288 29.679,11.680 30.042,1.042 23.914 L -0.000 23.314 -0.000 32.490 L 0.000 41.667 200.000 41.667 L 400.000 41.667 400.000 28.713 L 400.000 15.759 398.875 16.856 C 389.010 26.479,379.039 26.888,368.538 18.100 C 366.567 16.451,366.610 16.466,366.185 17.292 C 362.488 24.466,355.683 26.664,348.040 23.153 L 346.664 22.520 345.873 23.206 C 335.416 32.285,325.052 32.163,315.460 22.850 L 313.332 20.784 311.678 21.562 C 304.476 24.949,298.666 23.391,294.355 16.917 C 293.866 16.183,293.447 15.563,293.424 15.538 C 293.400 15.513,293.309 15.588,293.221 15.704 " stroke="none" fill="#0c0c2c" fill-rule="evenodd"></path><path id="path4" d="M0.010 16.527 L 0.000 23.304 1.292 24.048 C 11.703 30.039,20.343 29.628,27.654 22.792 C 28.843 21.680,28.656 21.720,30.205 22.240 C 33.441 23.326,37.194 23.444,40.451 22.563 C 41.152 22.373,41.553 22.365,42.535 22.518 C 45.505 22.981,48.917 22.116,52.068 20.100 C 53.299 19.313,53.413 19.338,54.562 20.641 C 63.593 30.877,74.566 31.767,85.440 23.145 C 86.711 22.137,86.467 22.111,88.787 23.508 C 98.798 29.537,107.055 29.216,114.564 22.507 C 115.859 21.350,115.892 21.333,116.814 21.330 C 117.973 21.326,119.916 21.059,120.583 20.812 C 121.387 20.515,122.228 20.163,122.539 19.992 C 123.068 19.702,123.337 19.825,124.602 20.928 C 132.809 28.085,142.454 27.839,152.177 20.226 C 153.340 19.315,153.305 19.312,154.366 20.444 C 164.320 31.070,175.050 31.843,185.905 22.717 C 186.719 22.033,186.500 21.996,188.259 23.114 C 200.031 30.591,210.792 28.520,219.056 17.188 C 219.499 16.581,219.893 16.052,219.932 16.013 C 219.970 15.975,220.845 16.811,221.876 17.871 C 231.180 27.439,240.783 28.180,251.447 20.152 C 253.501 18.605,253.333 18.646,253.921 19.542 C 258.363 26.301,264.246 27.904,271.444 24.317 C 273.024 23.529,273.539 23.342,273.777 23.469 C 276.206 24.757,281.352 25.410,283.917 24.755 C 287.400 23.865,290.428 21.136,292.519 17.002 C 293.384 15.292,293.287 15.298,294.337 16.885 C 298.630 23.381,304.465 24.954,311.678 21.562 L 313.332 20.784 315.460 22.850 C 325.052 32.163,335.416 32.285,345.873 23.206 L 346.664 22.520 348.040 23.153 C 355.683 26.664,362.488 24.466,366.185 17.292 C 366.610 16.466,366.567 16.451,368.538 18.100 C 379.039 26.888,389.010 26.479,398.875 16.856 L 400.000 15.759 399.993 13.838 L 399.985 11.917 399.202 12.833 C 389.670 23.987,379.551 25.315,367.938 16.937 C 367.152 16.370,366.727 16.159,366.584 16.264 C 366.469 16.348,365.784 16.931,365.062 17.560 C 359.349 22.537,353.886 22.614,347.919 17.804 C 346.869 16.958,346.462 16.845,345.896 17.242 C 339.558 21.681,332.807 20.686,327.862 14.583 C 326.550 12.965,326.648 13.006,325.786 13.706 C 315.510 22.050,305.155 21.711,296.131 12.735 C 294.984 11.593,294.260 10.993,294.104 11.053 C 293.384 11.329,291.735 12.872,290.749 14.193 C 286.984 19.234,281.461 20.546,274.807 17.980 L 273.433 17.450 272.894 17.767 C 265.764 21.952,261.537 21.929,256.537 17.679 L 255.277 16.609 254.135 16.804 C 253.507 16.912,252.212 17.000,251.257 17.000 L 249.521 17.000 247.721 18.001 C 238.437 23.164,230.384 21.762,222.212 13.562 L 220.008 11.350 219.454 12.050 C 217.578 14.420,216.912 15.208,215.891 16.267 C 208.206 24.242,198.763 25.020,188.435 18.529 C 186.563 17.352,186.623 17.367,185.918 17.904 C 181.097 21.582,174.965 21.781,170.670 18.401 C 170.099 17.951,169.507 17.492,169.355 17.381 C 169.138 17.222,168.762 17.231,167.582 17.422 C 165.838 17.705,163.524 17.736,162.042 17.495 C 161.225 17.363,160.764 17.381,159.906 17.580 C 155.676 18.561,151.236 16.819,147.917 12.877 C 146.797 11.547,146.628 11.471,146.226 12.125 C 141.634 19.600,135.804 21.434,128.149 17.813 L 126.714 17.134 125.149 18.213 C 118.928 22.502,113.310 22.033,108.141 16.795 C 106.440 15.071,106.736 15.143,105.455 16.149 C 95.481 23.987,85.272 23.622,76.560 15.118 L 75.202 13.793 74.143 13.971 C 73.560 14.070,72.528 14.202,71.848 14.266 C 70.750 14.369,70.497 14.463,69.565 15.114 C 64.871 18.396,59.747 18.087,54.665 14.215 C 54.029 13.730,53.474 13.333,53.433 13.333 C 53.392 13.333,52.284 14.402,50.971 15.708 C 42.305 24.328,33.315 25.259,23.328 18.571 L 21.240 17.172 20.245 17.335 C 19.698 17.425,18.725 17.500,18.083 17.503 C 17.442 17.506,16.279 17.656,15.500 17.837 C 9.439 19.242,4.874 17.314,1.388 11.878 C 0.854 11.045,0.327 10.225,0.218 10.056 C 0.063 9.816,0.017 11.221,0.010 16.527 " stroke="none" fill="#142c5b" fill-rule="evenodd"></path></g></svg>