<svg id="visual" viewBox="0 0 900 600" width="900" height="600" xmlns="http://www.w3.org/2000/svg" xmlns:xlink="http://www.w3.org/1999/xlink" version="1.1"><rect x="0" y="0" width="900" height="600" fill="#001220" opacity="0"></rect><path d="M0 106L16.7 100.8C33.3 95.7 66.7 85.3 100 74.2C133.3 63 166.7 51 200 54.8C233.3 58.7 266.7 78.3 300 85C333.3 91.7 366.7 85.3 400 75.5C433.3 65.7 466.7 52.3 500 46.2C533.3 40 566.7 41 600 50.7C633.3 60.3 666.7 78.7 700 89C733.3 99.3 766.7 101.7 800 91.7C833.3 81.7 866.7 59.3 883.3 48.2L900 37L900 601L883.3 601C866.7 601 833.3 601 800 601C766.7 601 733.3 601 700 601C666.7 601 633.3 601 600 601C566.7 601 533.3 601 500 601C466.7 601 433.3 601 400 601C366.7 601 333.3 601 300 601C266.7 601 233.3 601 200 601C166.7 601 133.3 601 100 601C66.7 601 33.3 601 16.7 601L0 601Z" fill="#fa7268"></path><path d="M0 126L16.7 133.3C33.3 140.7 66.7 155.3 100 163.2C133.3 171 166.7 172 200 170.7C233.3 169.3 266.7 165.7 300 156.7C333.3 147.7 366.7 133.3 400 130.5C433.3 127.7 466.7 136.3 500 141C533.3 145.7 566.7 146.3 600 141.5C633.3 136.7 666.7 126.3 700 122.5C733.3 118.7 766.7 121.3 800 120.8C833.3 120.3 866.7 116.7 883.3 114.8L900 113L900 601L883.3 601C866.7 601 833.3 601 800 601C766.7 601 733.3 601 700 601C666.7 601 633.3 601 600 601C566.7 601 533.3 601 500 601C466.7 601 433.3 601 400 601C366.7 601 333.3 601 300 601C266.7 601 233.3 601 200 601C166.7 601 133.3 601 100 601C66.7 601 33.3 601 16.7 601L0 601Z" fill="#f36567"></path><path d="M0 207L16.7 214C33.3 221 66.7 235 100 238C133.3 241 166.7 233 200 222.7C233.3 212.3 266.7 199.7 300 203C333.3 206.3 366.7 225.7 400 238C433.3 250.3 466.7 255.7 500 248.5C533.3 241.3 566.7 221.7 600 221.5C633.3 221.3 666.7 240.7 700 241.7C733.3 242.7 766.7 225.3 800 220.3C833.3 215.3 866.7 222.7 883.3 226.3L900 230L900 601L883.3 601C866.7 601 833.3 601 800 601C766.7 601 733.3 601 700 601C666.7 601 633.3 601 600 601C566.7 601 533.3 601 500 601C466.7 601 433.3 601 400 601C366.7 601 333.3 601 300 601C266.7 601 233.3 601 200 601C166.7 601 133.3 601 100 601C66.7 601 33.3 601 16.7 601L0 601Z" fill="#eb5967"></path><path d="M0 297L16.7 295.8C33.3 294.7 66.7 292.3 100 290.3C133.3 288.3 166.7 286.7 200 293.7C233.3 300.7 266.7 316.3 300 317.8C333.3 319.3 366.7 306.7 400 298C433.3 289.3 466.7 284.7 500 288.3C533.3 292 566.7 304 600 305.8C633.3 307.7 666.7 299.3 700 294.5C733.3 289.7 766.7 288.3 800 292.7C833.3 297 866.7 307 883.3 312L900 317L900 601L883.3 601C866.7 601 833.3 601 800 601C766.7 601 733.3 601 700 601C666.7 601 633.3 601 600 601C566.7 601 533.3 601 500 601C466.7 601 433.3 601 400 601C366.7 601 333.3 601 300 601C266.7 601 233.3 601 200 601C166.7 601 133.3 601 100 601C66.7 601 33.3 601 16.7 601L0 601Z" fill="#e34c67"></path><path d="M0 360L16.7 363.7C33.3 367.3 66.7 374.7 100 380.3C133.3 386 166.7 390 200 391.3C233.3 392.7 266.7 391.3 300 389.2C333.3 387 366.7 384 400 376.7C433.3 369.3 466.7 357.7 500 353.3C533.3 349 566.7 352 600 356.7C633.3 361.3 666.7 367.7 700 366.5C733.3 365.3 766.7 356.7 800 361.3C833.3 366 866.7 384 883.3 393L900 402L900 601L883.3 601C866.7 601 833.3 601 800 601C766.7 601 733.3 601 700 601C666.7 601 633.3 601 600 601C566.7 601 533.3 601 500 601C466.7 601 433.3 601 400 601C366.7 601 333.3 601 300 601C266.7 601 233.3 601 200 601C166.7 601 133.3 601 100 601C66.7 601 33.3 601 16.7 601L0 601Z" fill="#da3f67"></path><path d="M0 416L16.7 417.8C33.3 419.7 66.7 423.3 100 434.7C133.3 446 166.7 465 200 463.3C233.3 461.7 266.7 439.3 300 436.7C333.3 434 366.7 451 400 459C433.3 467 466.7 466 500 462.2C533.3 458.3 566.7 451.7 600 445.8C633.3 440 666.7 435 700 435.3C733.3 435.7 766.7 441.3 800 444.2C833.3 447 866.7 447 883.3 447L900 447L900 601L883.3 601C866.7 601 833.3 601 800 601C766.7 601 733.3 601 700 601C666.7 601 633.3 601 600 601C566.7 601 533.3 601 500 601C466.7 601 433.3 601 400 601C366.7 601 333.3 601 300 601C266.7 601 233.3 601 200 601C166.7 601 133.3 601 100 601C66.7 601 33.3 601 16.7 601L0 601Z" fill="#d03267"></path><path d="M0 526L16.7 525.7C33.3 525.3 66.7 524.7 100 520C133.3 515.3 166.7 506.7 200 502.2C233.3 497.7 266.7 497.3 300 495.5C333.3 493.7 366.7 490.3 400 489.3C433.3 488.3 466.7 489.7 500 496.3C533.3 503 566.7 515 600 523.7C633.3 532.3 666.7 537.7 700 542.3C733.3 547 766.7 551 800 543.3C833.3 535.7 866.7 516.3 883.3 506.7L900 497L900 601L883.3 601C866.7 601 833.3 601 800 601C766.7 601 733.3 601 700 601C666.7 601 633.3 601 600 601C566.7 601 533.3 601 500 601C466.7 601 433.3 601 400 601C366.7 601 333.3 601 300 601C266.7 601 233.3 601 200 601C166.7 601 133.3 601 100 601C66.7 601 33.3 601 16.7 601L0 601Z" fill="#c62368"></path></svg>